<svg width="30" height="28" viewBox="0 0 30 28" fill="none" xmlns="http://www.w3.org/2000/svg">
<path d="M10.4668 28L7.9335 23.7333L3.1335 22.6667L3.60016 17.7333L0.333496 14L3.60016 10.2667L3.1335 5.33333L7.9335 4.26667L10.4668 0L15.0002 1.93333L19.5335 0L22.0668 4.26667L26.8668 5.33333L26.4002 10.2667L29.6668 14L26.4002 17.7333L26.8668 22.6667L22.0668 23.7333L19.5335 28L15.0002 26.0667L10.4668 28ZM11.6002 24.6L15.0002 23.1333L18.4668 24.6L20.3335 21.4L24.0002 20.5333L23.6668 16.8L26.1335 14L23.6668 11.1333L24.0002 7.4L20.3335 6.6L18.4002 3.4L15.0002 4.86667L11.5335 3.4L9.66683 6.6L6.00016 7.4L6.3335 11.1333L3.86683 14L6.3335 16.8L6.00016 20.6L9.66683 21.4L11.6002 24.6ZM13.6002 18.7333L21.1335 11.2L19.2668 9.26667L13.6002 14.9333L10.7335 12.1333L8.86683 14L13.6002 18.7333Z" fill="#08B088"/>
</svg>
